<svg xmlns="http://www.w3.org/2000/svg" fill="none" viewBox="0 0 44 44"><path fill="url(#a)" fill-rule="evenodd" d="M18 12a7 7 0 1 1 7 7v-4a3 3 0 1 0-3-3z" clip-rule="evenodd"/><path fill="url(#b)" fill-rule="evenodd" d="M32 12a7 7 0 0 1-7 7h-3v-4h3a3 3 0 0 0 3-3z" clip-rule="evenodd"/><path fill="url(#c)" fill-rule="evenodd" d="M25 5a7 7 0 0 1 7 7h-4a3 3 0 0 0-3-3z" clip-rule="evenodd"/><path fill="url(#d)" fill-rule="evenodd" d="M25 9a3 3 0 0 0-3 3h-4a7 7 0 0 1 7-7z" clip-rule="evenodd"/><path fill="url(#e)" fill-rule="evenodd" d="M8 22a7 7 0 0 1 7-7h3v4h-3a3 3 0 0 0-3 3z" clip-rule="evenodd"/><path fill="url(#f)" fill-rule="evenodd" d="M18 32a7 7 0 1 0 14 0h-4a3 3 0 1 1-6 0z" clip-rule="evenodd"/><path fill="url(#g)" fill-rule="evenodd" d="M22 12v20h-4V12z" clip-rule="evenodd"/><path fill="url(#h)" fill-rule="evenodd" d="M32 32a7 7 0 0 0-7-7h-5v4h5a3 3 0 0 1 3 3z" clip-rule="evenodd"/><path fill="url(#i)" fill-rule="evenodd" d="M8 22a7 7 0 0 0 7 7h5v-4h-5a3 3 0 0 1-3-3z" clip-rule="evenodd"/><defs><linearGradient id="a" x1="21.111" x2="29.444" y1="15.889" y2="9.222" gradientUnits="userSpaceOnUse"><stop stop-color="#4200FF"/><stop offset=".5" stop-color="#0AF"/><stop offset="1" stop-color="#0FA"/></linearGradient><linearGradient id="b" x1="30" x2="22" y1="12" y2="18" gradientUnits="userSpaceOnUse"><stop stop-color="#FD3DF6"/><stop offset="1" stop-color="#D478EF"/></linearGradient><linearGradient id="c" x1="25" x2="30.5" y1="7" y2="12" gradientUnits="userSpaceOnUse"><stop stop-color="#FF69F9"/><stop offset="1" stop-color="#FD3DF6"/></linearGradient><linearGradient id="d" x1="22" x2="25" y1="12" y2="9" gradientUnits="userSpaceOnUse"><stop stop-color="#8C6CF3"/><stop offset="1" stop-color="#FF69F9"/></linearGradient><linearGradient id="e" x1="10" x2="18" y1="22" y2="17" gradientUnits="userSpaceOnUse"><stop stop-color="#00D1AC"/><stop offset="1" stop-color="#7696D9"/></linearGradient><linearGradient id="f" x1="20" x2="30.5" y1="32" y2="32" gradientUnits="userSpaceOnUse"><stop stop-color="#1B71EA"/><stop offset="1" stop-color="#2C91ED"/></linearGradient><linearGradient id="g" x1="22" x2="22" y1="32" y2="11.775" gradientUnits="userSpaceOnUse"><stop stop-color="#1B71EA"/><stop offset="1" stop-color="#8C6CF3"/></linearGradient><linearGradient id="h" x1="23.5" x2="28" y1="26" y2="32" gradientUnits="userSpaceOnUse"><stop stop-color="#00D1AC"/><stop offset="1" stop-color="#2C91ED"/></linearGradient><linearGradient id="i" x1="10" x2="20" y1="22" y2="27" gradientUnits="userSpaceOnUse"><stop stop-color="#00D1AC"/><stop offset="1" stop-color="#00D1AC"/></linearGradient></defs></svg>