<svg xmlns="http://www.w3.org/2000/svg" viewBox="0 0 88.46 21.17"><path d="M0 0c-.162.882-.972 1.459-1.855 1.459C-2.808 1.459-3.602.955-3.8 0zm3.043-1.891h-6.896c0-1.332.702-2.053 2.053-2.053.702 0 1.205.235 1.567.847h3.15c-.521-2.178-2.593-3.169-4.7-3.169-3.06 0-5.348 1.729-5.348 4.915 0 3.08 2.108 4.935 5.114 4.935 3.206 0 5.06-1.981 5.06-5.133" style="fill:#2d7bc8;fill-opacity:1;fill-rule:nonzero;stroke:none" transform="matrix(1.25 0 0 -1.25 31.35 12.353)"/><path d="M0 0h-3.278v6.536h-1.638v2.701h1.638v2.774H0V9.237h1.615V6.536H0" style="fill:#2d7bc8;fill-opacity:1;fill-rule:nonzero;stroke:none" transform="matrix(1.25 0 0 -1.25 42.367 19.983)"/><path d="M219.53 457.903h4.096v-12.337h-4.096z" style="fill:#2d7bc8;fill-opacity:1;fill-rule:nonzero;stroke:none" transform="translate(-162.486 -437.92)"/><path d="M0 0h-3.279v6.217h-1.632v2.702h1.632v.482c0 1.278.037 2.215.936 3.241a4.2 4.2 0 0 0 3.224 1.476c.505 0 .954-.089 1.405-.324v-2.827c-.378.162-.72.306-1.153.306C.288 11.273 0 10.769 0 9.724v-.805h1.957V6.217H0" style="fill:#2d7bc8;fill-opacity:1;fill-rule:nonzero;stroke:none" transform="matrix(1.25 0 0 -1.25 69.36 19.933)"/><path d="M0 0c-.16.883-.97 1.458-1.852 1.458C-2.808 1.458-3.6.954-3.797 0zm3.046-1.891h-6.898c0-1.332.702-2.052 2.053-2.052.702 0 1.206.234 1.567.846h3.151c-.522-2.179-2.594-3.17-4.7-3.17-3.061 0-5.349 1.729-5.349 4.917 0 3.079 2.108 4.933 5.115 4.933 3.206 0 5.061-1.98 5.061-5.132" style="fill:#2d7bc8;fill-opacity:1;fill-rule:nonzero;stroke:none" transform="matrix(1.25 0 0 -1.25 81.62 12.36)"/><path d="M0 0a2.024 2.024 0 1 1 0-4.048A2.024 2.024 0 0 1 0 0" style="fill:#2d7bc8;fill-opacity:1;fill-rule:nonzero;stroke:none" transform="matrix(1.25 0 0 -1.25 59.084 1.025)"/><path d="M0 0h3.315l2.626-6.921L8.724 0h3.349l1.958-12.949h-3.366L9.72-5.496h-.035l-3.108-7.453H5.238L2.267-5.496h-.035L1.15-12.949h-3.349" style="fill:#2d7bc8;fill-opacity:1;fill-rule:nonzero;stroke:none" transform="matrix(1.25 0 0 -1.25 3.92 3.81)"/><path d="M0 0h4.102v-2.896H-3.42v13.157H0" style="fill:#2d7bc8;fill-opacity:1;fill-rule:nonzero;stroke:none" transform="matrix(1.25 0 0 -1.25 50.392 16.35)"/></svg>